<svg width="1049" height="1024" viewBox="0 0 1049 1024" fill="none" xmlns="http://www.w3.org/2000/svg">
<path d="M688.543 911.082L680.34 922.02C680.796 921.564 677.605 924.982 670.77 932.273C664.389 939.565 654.135 947.768 640.008 956.883C626.336 965.997 609.018 974.428 588.055 982.176C567.091 989.923 542.71 993.797 514.91 993.797C493.947 993.797 477.085 991.746 464.324 987.645C452.02 983.087 445.184 980.353 443.816 979.441L434.246 975.34L435.613 964.402C435.613 924.298 431.512 885.333 423.309 847.508C415.105 809.682 401.434 771.173 382.293 731.98L380.926 724.461C379.559 688.914 373.862 653.367 363.836 617.82C354.266 581.818 340.366 545.132 322.137 507.762C319.858 520.522 318.263 533.055 317.352 545.359C316.896 557.208 316.668 569.513 316.668 582.273C316.668 594.122 316.896 605.743 317.352 617.137C318.263 628.53 319.858 640.151 322.137 652L323.504 657.469L320.77 662.938C286.134 726.284 268.816 792.592 268.816 861.863C268.816 874.624 269.272 887.612 270.184 900.828C271.095 914.044 272.918 927.26 275.652 940.477L277.02 947.312L272.918 952.781C272.462 953.693 270.184 956.655 266.082 961.668C261.98 966.681 255.372 972.378 246.258 978.758C237.599 984.682 226.206 990.151 212.078 995.164C197.951 999.721 180.861 1002 160.809 1002C143.491 1002 127.996 1000.63 114.324 997.898C100.652 995.164 88.3477 991.518 77.4102 986.961C66.9284 982.404 57.5859 977.391 49.3828 971.922C41.6354 965.997 35.0273 960.073 29.5586 954.148C16.3424 940.021 7 923.842 1.53125 905.613L0.164062 899.461L2.89844 893.992C43.9141 826.544 64.4219 749.982 64.4219 664.305C64.4219 657.469 64.4219 650.633 64.4219 643.797C64.4219 636.505 63.9661 629.441 63.0547 622.605L64.4219 614.402C79.0052 580.223 90.1706 546.499 97.918 513.23C105.665 479.962 109.539 446.466 109.539 412.742C109.539 401.349 108.855 389.956 107.488 378.562C106.121 366.714 104.754 355.092 103.387 343.699L102.02 338.23L104.754 332.762C143.035 268.504 162.176 200.828 162.176 129.734C162.176 111.049 160.809 90.9974 158.074 69.5781L156.707 60.0078L163.543 54.5391C163.999 54.0833 166.277 52.2604 170.379 49.0703C174.936 45.4245 181.316 41.7786 189.52 38.1328C197.723 34.487 207.749 31.069 219.598 27.8789C231.902 24.6888 246.03 23.0938 261.98 23.0938C288.868 23.0938 311.883 26.9674 331.023 34.7148C350.164 42.4622 365.887 51.1211 378.191 60.6914C390.496 70.2617 399.383 79.1484 404.852 87.3516C410.776 95.5547 413.966 99.8841 414.422 100.34L419.891 108.543L415.789 117.43L407.586 131.102C416.701 133.38 423.992 135.659 429.461 137.938C435.385 139.76 438.803 140.672 439.715 140.672L447.918 146.824V156.395C447.918 202.879 453.615 246.629 465.008 287.645C476.401 328.66 494.174 368.536 518.328 407.273L521.062 415.477C521.062 445.555 523.797 474.493 529.266 502.293C536.102 479.507 541.342 456.72 544.988 433.934C548.634 411.147 550.457 388.133 550.457 364.891C550.457 359.422 550.457 353.953 550.457 348.484C550.457 342.56 550.001 336.408 549.09 330.027L547.723 324.559L551.824 319.09C576.434 283.087 594.663 246.173 606.512 208.348C618.361 170.066 624.285 129.507 624.285 86.668V60.0078L622.918 51.1211L629.754 45.6523C630.21 45.1966 632.26 43.8294 635.906 41.5508C640.008 38.8164 645.704 35.8542 652.996 32.6641C660.288 29.474 669.174 26.7396 679.656 24.4609C690.138 21.7266 701.987 20.3594 715.203 20.3594C744.826 20.3594 769.891 24.9167 790.398 34.0312C810.906 43.1458 827.54 53.3997 840.301 64.793C853.517 75.7305 862.859 85.9844 868.328 95.5547C874.253 104.669 877.443 109.454 877.898 109.91L882 118.797L876.531 127L869.695 136.57C878.81 140.216 885.646 143.634 890.203 146.824C895.216 149.559 898.178 150.926 899.09 150.926L907.293 157.762L905.926 167.332C904.559 178.725 903.191 190.118 901.824 201.512C900.913 212.449 900.457 223.615 900.457 235.008C900.457 267.82 904.103 300.177 911.395 332.078C918.686 363.979 929.396 394.969 943.523 425.047L944.891 435.301C943.523 444.871 942.612 454.669 942.156 464.695C942.156 474.266 942.156 484.064 942.156 494.09C942.156 564.728 956.74 629.897 985.906 689.598L988.641 692.332V698.484C988.641 702.586 988.413 706.46 987.957 710.105C987.501 713.751 987.273 717.625 987.273 721.727C987.273 796.466 1005.96 868.016 1043.33 936.375L1048.8 947.312L1039.91 955.516C1040.37 955.06 1037.18 957.566 1030.34 963.035C1023.96 968.504 1014.39 974.656 1001.63 981.492C989.324 988.328 973.829 994.708 955.145 1000.63C936.46 1006.1 915.268 1008.84 891.57 1008.84C877.443 1008.84 864.682 1007.47 853.289 1004.73C841.896 1002.46 832.098 999.949 823.895 997.215C816.147 994.025 809.995 991.062 805.438 988.328C800.88 985.594 798.374 983.999 797.918 983.543L789.715 978.074L791.082 967.137C793.361 955.288 794.728 943.439 795.184 931.59C796.095 919.285 796.551 907.208 796.551 895.359C796.551 842.495 786.753 787.579 767.156 730.613V723.094C768.068 716.714 768.523 710.333 768.523 703.953C768.523 697.117 768.523 690.509 768.523 684.129C768.523 635.822 761.46 586.831 747.332 537.156C745.053 549.005 743.458 561.082 742.547 573.387C742.091 585.236 741.863 597.085 741.863 608.934C741.863 616.681 742.091 624.201 742.547 631.492C743.003 638.328 743.686 645.62 744.598 653.367L741.863 664.305C696.29 734.487 673.504 810.138 673.504 891.258C674.415 893.536 675.327 895.359 676.238 896.727C677.605 898.094 678.973 899.689 680.34 901.512L688.543 911.082ZM379.559 109.91C376.824 106.264 372.267 101.479 365.887 95.5547C359.507 89.6302 351.531 83.9336 341.961 78.4648C332.391 72.5404 320.77 67.5273 307.098 63.4258C293.882 59.3242 278.842 57.2734 261.98 57.2734C244.663 57.2734 230.307 59.3242 218.914 63.4258C207.521 67.5273 198.862 71.401 192.938 75.0469C194.305 85.0729 195.444 94.8711 196.355 104.441C197.267 114.012 197.723 123.354 197.723 132.469C197.723 197.182 182.228 259.845 151.238 320.457C156.251 319.546 161.036 319.09 165.594 319.09C170.607 319.09 175.62 319.09 180.633 319.09C196.583 319.09 211.167 320.685 224.383 323.875C238.055 327.065 249.676 330.483 259.246 334.129C269.272 337.775 277.02 341.193 282.488 344.383C287.957 347.573 290.919 349.396 291.375 349.852C295.932 353.042 298.211 356.688 298.211 360.789C298.211 364.891 296.616 368.309 293.426 371.043C290.236 373.322 287.273 374.461 284.539 374.461C284.083 374.461 282.26 373.322 279.07 371.043C276.336 368.309 271.323 365.574 264.031 362.84C257.195 360.105 247.397 357.599 234.637 355.32C222.332 352.586 206.154 351.219 186.102 351.219C179.266 351.219 171.974 351.674 164.227 352.586C156.479 353.042 148.504 354.409 140.301 356.688C141.212 366.714 141.896 376.284 142.352 385.398C142.807 394.513 143.035 404.083 143.035 414.109C143.035 478.823 130.275 542.169 104.754 604.148C117.514 604.604 132.781 606.199 150.555 608.934C168.328 611.668 185.19 615.314 201.141 619.871C217.547 624.428 231.219 629.669 242.156 635.594C253.549 641.062 259.246 646.987 259.246 653.367C259.246 657.469 257.651 660.659 254.461 662.938C251.727 664.76 248.992 665.672 246.258 665.672C242.612 665.672 240.333 665.216 239.422 664.305C222.104 656.557 200.685 650.633 175.164 646.531C149.643 641.974 123.895 639.695 97.918 639.695V665.672C97.918 710.333 92.9049 752.488 82.8789 792.137C72.8529 831.785 57.3581 869.611 36.3945 905.613C37.7617 908.803 40.724 913.816 45.2812 920.652C49.8385 927.488 56.9023 934.324 66.4727 941.16C76.043 947.996 88.3477 954.148 103.387 959.617C118.882 964.63 138.022 967.137 160.809 967.137C172.202 967.137 182.228 966.225 190.887 964.402C200.001 962.124 207.749 959.389 214.129 956.199C220.965 953.009 226.434 950.047 230.535 947.312C235.092 944.122 238.51 941.388 240.789 939.109C238.51 925.893 236.688 912.905 235.32 900.145C234.409 887.384 233.953 874.624 233.953 861.863C233.953 825.405 238.283 789.858 246.941 755.223C256.056 720.132 269.956 685.724 288.641 652C284.539 628.302 282.488 604.148 282.488 579.539C282.488 510.724 298.439 440.086 330.34 367.625C329.428 359.878 328.745 352.13 328.289 344.383C327.833 336.18 327.605 328.204 327.605 320.457C327.605 248.908 344.923 178.725 379.559 109.91ZM678.973 654.734C675.783 659.292 671.681 661.57 666.668 661.57C665.301 661.57 664.389 661.342 663.934 660.887C663.478 660.431 662.339 660.203 660.516 660.203C649.578 653.823 636.59 648.126 621.551 643.113C606.512 637.645 590.105 633.087 572.332 629.441L593.523 662.938L596.258 671.824C600.359 731.525 615.854 787.352 642.742 839.305C649.578 772.768 671.909 709.878 709.734 650.633C708.823 644.253 708.367 637.872 708.367 631.492C708.367 624.656 708.367 618.048 708.367 611.668C708.367 570.652 713.608 530.548 724.09 491.355C735.027 451.707 751.661 411.375 773.992 370.359V349.852C773.992 270.099 796.551 192.625 841.668 117.43C838.934 113.328 834.376 107.859 827.996 101.023C821.616 93.7318 813.185 86.8958 802.703 80.5156C792.677 73.6797 780.372 67.9831 765.789 63.4258C751.206 58.4128 734.344 55.9062 715.203 55.9062C701.076 55.9062 689.227 57.2734 679.656 60.0078C670.542 62.7422 663.706 65.4766 659.148 68.2109V85.3008C659.148 125.405 654.135 163.914 644.109 200.828C634.539 237.742 619.5 273.745 598.992 308.836H613.348C631.577 308.836 647.983 310.887 662.566 314.988C677.605 319.09 690.366 323.647 700.848 328.66C711.785 333.217 720.216 337.775 726.141 342.332C732.065 346.889 735.483 349.396 736.395 349.852C739.129 352.586 740.496 355.776 740.496 359.422C740.496 363.068 739.357 366.258 737.078 368.992C734.799 371.727 731.837 373.094 728.191 373.094C726.824 373.094 725.457 372.866 724.09 372.41C722.723 371.954 721.128 371.271 719.305 370.359C718.393 369.904 715.431 368.309 710.418 365.574C705.405 362.384 698.341 359.194 689.227 356.004C680.568 352.358 670.086 349.168 657.781 346.434C645.477 343.699 631.577 342.332 616.082 342.332C611.069 342.332 605.828 342.56 600.359 343.016C594.891 343.471 589.422 344.155 583.953 345.066V368.992C583.953 402.26 580.307 434.845 573.016 466.746C566.18 498.191 556.154 529.637 542.938 561.082L555.926 594.578C568.686 596.857 582.358 600.047 596.941 604.148C611.525 608.25 624.969 612.807 637.273 617.82C649.578 622.833 659.832 628.074 668.035 633.543C676.238 638.556 680.34 643.341 680.34 647.898C680.34 650.633 679.884 652.911 678.973 654.734ZM429.461 411.375C440.854 411.375 448.374 412.286 452.02 414.109C455.665 415.932 457.488 419.578 457.488 425.047C457.488 430.516 456.349 434.161 454.07 435.984C452.247 437.352 449.285 438.035 445.184 438.035C441.082 438.035 436.069 438.035 430.145 438.035C424.22 437.579 417.156 438.263 408.953 440.086C401.206 441.909 392.091 445.327 381.609 450.34C371.583 454.897 360.646 462.417 348.797 472.898C347.885 472.898 347.202 473.126 346.746 473.582C346.29 474.038 345.607 474.266 344.695 474.266C383.432 549.005 406.219 622.15 413.055 693.699C430.372 681.395 447.234 673.647 463.641 670.457C480.503 667.267 493.947 665.672 503.973 665.672C514.454 665.672 521.518 666.811 525.164 669.09C528.81 670.913 530.633 674.559 530.633 680.027C529.266 686.863 525.848 690.509 520.379 690.965C514.91 691.421 507.391 691.876 497.82 692.332C488.25 692.788 476.857 695.294 463.641 699.852C450.424 703.953 435.385 713.296 418.523 727.879C435.385 765.704 447.918 802.846 456.121 839.305C464.78 875.763 469.109 913.589 469.109 952.781C474.122 954.148 480.275 955.743 487.566 957.566C495.314 959.389 503.973 960.301 513.543 960.301C529.493 960.301 544.533 958.25 558.66 954.148C573.243 950.047 586.232 945.262 597.625 939.793C609.474 934.324 619.272 928.855 627.02 923.387C635.223 917.462 640.919 912.905 644.109 909.715C620.867 874.168 602.41 837.482 588.738 799.656C575.066 761.375 566.408 721.043 562.762 678.66C538.608 641.746 520.151 602.326 507.391 560.398C495.086 518.471 487.794 471.987 485.516 420.945C461.818 382.664 444.044 342.332 432.195 299.949C420.346 257.566 413.966 213.361 413.055 167.332L393.23 163.23C382.749 189.207 374.773 214.956 369.305 240.477C363.836 265.997 361.102 291.746 361.102 317.723C361.102 334.585 362.469 351.219 365.203 367.625L363.836 377.879C358.823 388.361 354.266 398.842 350.164 409.324C346.062 419.806 342.189 430.288 338.543 440.77C356.316 428.921 373.178 421.173 389.129 417.527C405.079 413.426 418.523 411.375 429.461 411.375ZM835.516 416.844C847.365 416.844 856.479 417.527 862.859 418.895C869.24 419.806 873.797 421.173 876.531 422.996C879.266 424.819 880.861 426.87 881.316 429.148C881.772 431.427 882 433.478 882 435.301C882 438.947 880.861 441.681 878.582 443.504C876.303 445.327 873.341 446.238 869.695 446.238C868.328 446.238 867.645 446.238 867.645 446.238C867.645 445.783 867.189 445.555 866.277 445.555C865.822 445.555 864.454 445.555 862.176 445.555C859.897 445.099 855.796 444.871 849.871 444.871C840.757 444.871 828.68 446.466 813.641 449.656C798.602 452.391 783.107 458.771 767.156 468.797H765.789C765.789 470.164 765.561 471.303 765.105 472.215C764.65 472.671 764.422 473.354 764.422 474.266C789.487 544.904 802.02 612.124 802.02 675.926V695.066C815.236 688.686 827.996 684.357 840.301 682.078C853.061 679.799 864.682 678.66 875.164 678.66C887.469 678.66 896.583 679.116 902.508 680.027C908.888 680.939 913.445 682.306 916.18 684.129C918.914 685.496 920.281 687.319 920.281 689.598C920.737 691.421 920.965 693.243 920.965 695.066C920.965 698.712 919.826 701.674 917.547 703.953C915.268 705.776 912.306 706.688 908.66 706.688C907.749 706.688 907.293 706.688 907.293 706.688C907.293 706.232 906.837 706.004 905.926 706.004C905.47 706.004 903.875 706.004 901.141 706.004C898.862 705.548 894.76 705.32 888.836 705.32C879.721 705.32 867.645 706.915 852.605 710.105C838.022 712.84 822.527 719.22 806.121 729.246C806.121 730.158 805.21 730.613 803.387 730.613C812.501 758.868 819.109 786.44 823.211 813.328C827.768 840.216 830.047 867.104 830.047 893.992C830.047 917.234 828.68 939.337 825.945 960.301C832.326 963.035 840.984 965.997 851.922 969.188C862.859 972.378 876.076 973.973 891.57 973.973C905.698 973.973 918.914 972.833 931.219 970.555C943.979 967.82 955.145 964.63 964.715 960.984C974.285 956.883 982.488 953.009 989.324 949.363C996.16 945.262 1001.4 941.844 1005.05 939.109C970.411 870.294 953.094 796.922 953.094 718.992V701.219C922.56 638.784 907.293 568.146 907.293 489.305C907.293 481.102 907.521 472.443 907.977 463.328C908.432 454.214 909.116 444.871 910.027 435.301C880.861 371.043 866.277 302.911 866.277 230.906C866.277 221.792 866.277 212.677 866.277 203.562C866.733 193.992 867.872 184.422 869.695 174.852L852.605 167.332C837.111 198.777 825.717 229.767 818.426 260.301C811.134 290.379 807.488 321.596 807.488 353.953V373.094L806.121 383.348C802.02 390.184 798.146 397.247 794.5 404.539C791.31 411.375 787.892 418.211 784.246 425.047C803.387 419.578 820.477 416.844 835.516 416.844Z" fill="white"/>
</svg>
